<svg width="16" height="16" viewBox="0 0 16 16" fill="none" xmlns="http://www.w3.org/2000/svg">
<path d="M6 14.4888V9.55544C6 9.18204 6 8.99537 6.07266 8.85277C6.13658 8.7273 6.23857 8.62537 6.36401 8.56144C6.50661 8.48877 6.69327 8.48877 7.06667 8.48877H8.93333C9.30673 8.48877 9.4934 8.48877 9.636 8.56144C9.76147 8.62537 9.8634 8.7273 9.92733 8.85277C10 8.99537 10 9.18204 10 9.55544V14.4888M7.34513 2.33144L2.82359 5.84818C2.52135 6.08327 2.37023 6.20081 2.26135 6.34801C2.16491 6.4784 2.09307 6.62529 2.04935 6.78147C2 6.95778 2 7.14924 2 7.53217V12.3554C2 13.1022 2 13.4755 2.14533 13.7608C2.27315 14.0116 2.47713 14.2156 2.72801 14.3434C3.01323 14.4888 3.38659 14.4888 4.13333 14.4888H11.8667C12.6134 14.4888 12.9868 14.4888 13.272 14.3434C13.5229 14.2156 13.7269 14.0116 13.8547 13.7608C14 13.4755 14 13.1022 14 12.3554V7.53217C14 7.14924 14 6.95778 13.9507 6.78147C13.9069 6.62529 13.8351 6.4784 13.7387 6.34801C13.6298 6.20081 13.4787 6.08327 13.1764 5.84819L8.65487 2.33144C8.42067 2.14927 8.30353 2.05818 8.1742 2.02317C8.06013 1.99228 7.93987 1.99228 7.8258 2.02317C7.69647 2.05818 7.57933 2.14927 7.34513 2.33144Z" stroke="#161616" stroke-linecap="round" stroke-linejoin="round"/>
</svg>
